v 0.06180666666666666 0.0 -0.0015
v 0.061509050673186245 0.006058112719969042 -0.0015
v 0.06061906889745566 0.012057882502743499 -0.0015
v 0.059145292350488717 0.017941528285507467 -0.0015
v 0.05710191430608093 0.02365238734304498 -0.0015
v 0.05450861361182399 0.029135460980758827 -0.0015
v 0.051390365171045976 0.03433794420216488 -0.0015
v 0.047777199420839564 0.03920973424987438 -0.0015
v 0.04370391312253655 0.04370391312253655 -0.0015
v 0.03920973424987438 0.04777719942083956 -0.0015
v 0.034337944202164884 0.051390365171045976 -0.0015
v 0.029135460980758837 0.054508613611823985 -0.0015
v 0.023652387343044985 0.05710191430608093 -0.0015
v 0.017941528285507467 0.05914529235048872 -0.0015
v 0.012057882502743504 0.06061906889745566 -0.0015
v 0.006058112719969052 0.06150905067318624 -0.0015
v 3.784566824965037e-18 0.06180666666666666 -0.0015
v -0.0060581127199690445 0.061509050673186245 -0.0015
v -0.012057882502743495 0.06061906889745566 -0.0015
v -0.017941528285507456 0.05914529235048872 -0.0015
v -0.023652387343044978 0.05710191430608093 -0.0015
v -0.02913546098075883 0.05450861361182399 -0.0015
v -0.03433794420216486 0.05139036517104598 -0.0015
v -0.039209734249874374 0.04777719942083957 -0.0015
v -0.04370391312253654 0.04370391312253655 -0.0015
v -0.047777199420839564 0.03920973424987438 -0.0015
v -0.05139036517104598 0.03433794420216488 -0.0015
v -0.054508613611823985 0.029135460980758837 -0.0015
v -0.05710191430608093 0.02365238734304499 -0.0015
v -0.059145292350488717 0.01794152828550747 -0.0015
v -0.06061906889745566 0.012057882502743521 -0.0015
v -0.06150905067318624 0.006058112719969056 -0.0015
v -0.06180666666666666 7.569133649930074e-18 -0.0015
v -0.061509050673186245 -0.006058112719969041 -0.0015
v -0.06061906889745566 -0.012057882502743505 -0.0015
v -0.05914529235048872 -0.017941528285507453 -0.0015
v -0.057101914306080935 -0.02365238734304497 -0.0015
v -0.05450861361182399 -0.029135460980758827 -0.0015
v -0.05139036517104599 -0.03433794420216486 -0.0015
v -0.04777719942083957 -0.03920973424987437 -0.0015
v -0.043703913122536554 -0.04370391312253654 -0.0015
v -0.03920973424987441 -0.04777719942083954 -0.0015
v -0.03433794420216488 -0.051390365171045976 -0.0015
v -0.02913546098075884 -0.054508613611823985 -0.0015
v -0.023652387343045016 -0.057101914306080914 -0.0015
v -0.017941528285507474 -0.059145292350488717 -0.0015
v -0.012057882502743525 -0.06061906889745565 -0.0015
v -0.006058112719969032 -0.061509050673186245 -0.0015
v -1.135370047489511e-17 -0.06180666666666666 -0.0015
v 0.00605811271996901 -0.061509050673186245 -0.0015
v 0.012057882502743502 -0.06061906889745566 -0.0015
v 0.01794152828550745 -0.05914529235048872 -0.0015
v 0.023652387343044996 -0.05710191430608092 -0.0015
v 0.029135460980758823 -0.05450861361182399 -0.0015
v 0.034337944202164856 -0.05139036517104599 -0.0015
v 0.03920973424987439 -0.04777719942083956 -0.0015
v 0.043703913122536533 -0.043703913122536554 -0.0015
v 0.047777199420839536 -0.03920973424987441 -0.0015
v 0.051390365171045976 -0.03433794420216488 -0.0015
v 0.05450861361182398 -0.029135460980758844 -0.0015
v 0.057101914306080914 -0.02365238734304502 -0.0015
v 0.059145292350488717 -0.017941528285507477 -0.0015
v 0.06061906889745565 -0.012057882502743528 -0.0015
v 0.061509050673186245 -0.006058112719969036 -0.0015
v 0.05291666666666667 0.0 -0.0015
v 0.05266185845307042 0.005186740342439248 -0.0015
v 0.05189988775467094 0.01032352954002012 -0.0015
v 0.05063809276582938 0.0153608975047153 -0.0015
v 0.04888862526205559 0.020250331629319336 -0.0015
v 0.04666833357176712 0.02494474399037571 -0.0015
v 0.04399860031767635 0.029398924830620617 -0.0015
v 0.04090513649044483 0.033569977953659576 -0.0015
v 0.037417733837788146 0.037417733837788146 -0.0015
v 0.033569977953659576 0.040905136490444825 -0.0015
v 0.02939892483062062 0.04399860031767635 -0.0015
v 0.024944743990375717 0.04666833357176712 -0.0015
v 0.020250331629319336 0.04888862526205559 -0.0015
v 0.0153608975047153 0.05063809276582939 -0.0015
v 0.010323529540020124 0.05189988775467094 -0.0015
v 0.005186740342439257 0.05266185845307041 -0.0015
v 3.2402113227440386e-18 0.05291666666666667 -0.0015
v -0.005186740342439251 0.05266185845307042 -0.0015
v -0.010323529540020117 0.05189988775467094 -0.0015
v -0.01536089750471529 0.05063809276582939 -0.0015
v -0.020250331629319333 0.04888862526205559 -0.0015
v -0.02494474399037571 0.04666833357176712 -0.0015
v -0.029398924830620603 0.043998600317676356 -0.0015
v -0.03356997795365957 0.04090513649044484 -0.0015
v -0.03741773383778814 0.037417733837788146 -0.0015
v -0.04090513649044483 0.033569977953659576 -0.0015
v -0.043998600317676356 0.029398924830620617 -0.0015
v -0.04666833357176712 0.024944743990375717 -0.0015
v -0.04888862526205559 0.02025033162931934 -0.0015
v -0.05063809276582938 0.015360897504715301 -0.0015
v -0.05189988775467094 0.01032352954002014 -0.0015
v -0.05266185845307041 0.0051867403424392606 -0.0015
v -0.05291666666666667 6.480422645488077e-18 -0.0015
v -0.05266185845307042 -0.0051867403424392475 -0.0015
v -0.05189988775467094 -0.010323529540020126 -0.0015
v -0.05063809276582939 -0.015360897504715287 -0.0015
v -0.0488886252620556 -0.020250331629319326 -0.0015
v -0.04666833357176712 -0.02494474399037571 -0.0015
v -0.04399860031767636 -0.029398924830620603 -0.0015
v -0.04090513649044484 -0.03356997795365956 -0.0015
v -0.037417733837788146 -0.03741773383778814 -0.0015
v -0.0335699779536596 -0.04090513649044482 -0.0015
v -0.029398924830620617 -0.04399860031767635 -0.0015
v -0.02494474399037572 -0.04666833357176712 -0.0015
v -0.020250331629319364 -0.04888862526205558 -0.0015
v -0.015360897504715304 -0.05063809276582938 -0.0015
v -0.010323529540020141 -0.051899887754670936 -0.0015
v -0.005186740342439241 -0.05266185845307042 -0.0015
v -9.720633968232116e-18 -0.05291666666666667 -0.0015
v 0.0051867403424392215 -0.05266185845307042 -0.0015
v 0.010323529540020122 -0.05189988775467094 -0.0015
v 0.015360897504715284 -0.05063809276582939 -0.0015
v 0.020250331629319347 -0.048888625262055584 -0.0015
v 0.024944743990375707 -0.04666833357176712 -0.0015
v 0.029398924830620596 -0.04399860031767636 -0.0015
v 0.03356997795365958 -0.040905136490444825 -0.0015
v 0.03741773383778813 -0.037417733837788146 -0.0015
v 0.04090513649044481 -0.0335699779536596 -0.0015
v 0.04399860031767635 -0.029398924830620617 -0.0015
v 0.04666833357176711 -0.024944743990375724 -0.0015
v 0.04888862526205558 -0.020250331629319367 -0.0015
v 0.05063809276582938 -0.015360897504715308 -0.0015
v 0.051899887754670936 -0.010323529540020145 -0.0015
v 0.05266185845307042 -0.005186740342439243 -0.0015
v 0.06180666666666666 0.0 0.0015
v 0.061509050673186245 0.006058112719969042 0.0015
v 0.06061906889745566 0.012057882502743499 0.0015
v 0.059145292350488717 0.017941528285507467 0.0015
v 0.05710191430608093 0.02365238734304498 0.0015
v 0.05450861361182399 0.029135460980758827 0.0015
v 0.051390365171045976 0.03433794420216488 0.0015
v 0.047777199420839564 0.03920973424987438 0.0015
v 0.04370391312253655 0.04370391312253655 0.0015
v 0.03920973424987438 0.04777719942083956 0.0015
v 0.034337944202164884 0.051390365171045976 0.0015
v 0.029135460980758837 0.054508613611823985 0.0015
v 0.023652387343044985 0.05710191430608093 0.0015
v 0.017941528285507467 0.05914529235048872 0.0015
v 0.012057882502743504 0.06061906889745566 0.0015
v 0.006058112719969052 0.06150905067318624 0.0015
v 3.784566824965037e-18 0.06180666666666666 0.0015
v -0.0060581127199690445 0.061509050673186245 0.0015
v -0.012057882502743495 0.06061906889745566 0.0015
v -0.017941528285507456 0.05914529235048872 0.0015
v -0.023652387343044978 0.05710191430608093 0.0015
v -0.02913546098075883 0.05450861361182399 0.0015
v -0.03433794420216486 0.05139036517104598 0.0015
v -0.039209734249874374 0.04777719942083957 0.0015
v -0.04370391312253654 0.04370391312253655 0.0015
v -0.047777199420839564 0.03920973424987438 0.0015
v -0.05139036517104598 0.03433794420216488 0.0015
v -0.054508613611823985 0.029135460980758837 0.0015
v -0.05710191430608093 0.02365238734304499 0.0015
v -0.059145292350488717 0.01794152828550747 0.0015
v -0.06061906889745566 0.012057882502743521 0.0015
v -0.06150905067318624 0.006058112719969056 0.0015
v -0.06180666666666666 7.569133649930074e-18 0.0015
v -0.061509050673186245 -0.006058112719969041 0.0015
v -0.06061906889745566 -0.012057882502743505 0.0015
v -0.05914529235048872 -0.017941528285507453 0.0015
v -0.057101914306080935 -0.02365238734304497 0.0015
v -0.05450861361182399 -0.029135460980758827 0.0015
v -0.05139036517104599 -0.03433794420216486 0.0015
v -0.04777719942083957 -0.03920973424987437 0.0015
v -0.043703913122536554 -0.04370391312253654 0.0015
v -0.03920973424987441 -0.04777719942083954 0.0015
v -0.03433794420216488 -0.051390365171045976 0.0015
v -0.02913546098075884 -0.054508613611823985 0.0015
v -0.023652387343045016 -0.057101914306080914 0.0015
v -0.017941528285507474 -0.059145292350488717 0.0015
v -0.012057882502743525 -0.06061906889745565 0.0015
v -0.006058112719969032 -0.061509050673186245 0.0015
v -1.135370047489511e-17 -0.06180666666666666 0.0015
v 0.00605811271996901 -0.061509050673186245 0.0015
v 0.012057882502743502 -0.06061906889745566 0.0015
v 0.01794152828550745 -0.05914529235048872 0.0015
v 0.023652387343044996 -0.05710191430608092 0.0015
v 0.029135460980758823 -0.05450861361182399 0.0015
v 0.034337944202164856 -0.05139036517104599 0.0015
v 0.03920973424987439 -0.04777719942083956 0.0015
v 0.043703913122536533 -0.043703913122536554 0.0015
v 0.047777199420839536 -0.03920973424987441 0.0015
v 0.051390365171045976 -0.03433794420216488 0.0015
v 0.05450861361182398 -0.029135460980758844 0.0015
v 0.057101914306080914 -0.02365238734304502 0.0015
v 0.059145292350488717 -0.017941528285507477 0.0015
v 0.06061906889745565 -0.012057882502743528 0.0015
v 0.061509050673186245 -0.006058112719969036 0.0015
v 0.05291666666666667 0.0 0.0015
v 0.05266185845307042 0.005186740342439248 0.0015
v 0.05189988775467094 0.01032352954002012 0.0015
v 0.05063809276582938 0.0153608975047153 0.0015
v 0.04888862526205559 0.020250331629319336 0.0015
v 0.04666833357176712 0.02494474399037571 0.0015
v 0.04399860031767635 0.029398924830620617 0.0015
v 0.04090513649044483 0.033569977953659576 0.0015
v 0.037417733837788146 0.037417733837788146 0.0015
v 0.033569977953659576 0.040905136490444825 0.0015
v 0.02939892483062062 0.04399860031767635 0.0015
v 0.024944743990375717 0.04666833357176712 0.0015
v 0.020250331629319336 0.04888862526205559 0.0015
v 0.0153608975047153 0.05063809276582939 0.0015
v 0.010323529540020124 0.05189988775467094 0.0015
v 0.005186740342439257 0.05266185845307041 0.0015
v 3.2402113227440386e-18 0.05291666666666667 0.0015
v -0.005186740342439251 0.05266185845307042 0.0015
v -0.010323529540020117 0.05189988775467094 0.0015
v -0.01536089750471529 0.05063809276582939 0.0015
v -0.020250331629319333 0.04888862526205559 0.0015
v -0.02494474399037571 0.04666833357176712 0.0015
v -0.029398924830620603 0.043998600317676356 0.0015
v -0.03356997795365957 0.04090513649044484 0.0015
v -0.03741773383778814 0.037417733837788146 0.0015
v -0.04090513649044483 0.033569977953659576 0.0015
v -0.043998600317676356 0.029398924830620617 0.0015
v -0.04666833357176712 0.024944743990375717 0.0015
v -0.04888862526205559 0.02025033162931934 0.0015
v -0.05063809276582938 0.015360897504715301 0.0015
v -0.05189988775467094 0.01032352954002014 0.0015
v -0.05266185845307041 0.0051867403424392606 0.0015
v -0.05291666666666667 6.480422645488077e-18 0.0015
v -0.05266185845307042 -0.0051867403424392475 0.0015
v -0.05189988775467094 -0.010323529540020126 0.0015
v -0.05063809276582939 -0.015360897504715287 0.0015
v -0.0488886252620556 -0.020250331629319326 0.0015
v -0.04666833357176712 -0.02494474399037571 0.0015
v -0.04399860031767636 -0.029398924830620603 0.0015
v -0.04090513649044484 -0.03356997795365956 0.0015
v -0.037417733837788146 -0.03741773383778814 0.0015
v -0.0335699779536596 -0.04090513649044482 0.0015
v -0.029398924830620617 -0.04399860031767635 0.0015
v -0.02494474399037572 -0.04666833357176712 0.0015
v -0.020250331629319364 -0.04888862526205558 0.0015
v -0.015360897504715304 -0.05063809276582938 0.0015
v -0.010323529540020141 -0.051899887754670936 0.0015
v -0.005186740342439241 -0.05266185845307042 0.0015
v -9.720633968232116e-18 -0.05291666666666667 0.0015
v 0.0051867403424392215 -0.05266185845307042 0.0015
v 0.010323529540020122 -0.05189988775467094 0.0015
v 0.015360897504715284 -0.05063809276582939 0.0015
v 0.020250331629319347 -0.048888625262055584 0.0015
v 0.024944743990375707 -0.04666833357176712 0.0015
v 0.029398924830620596 -0.04399860031767636 0.0015
v 0.03356997795365958 -0.040905136490444825 0.0015
v 0.03741773383778813 -0.037417733837788146 0.0015
v 0.04090513649044481 -0.0335699779536596 0.0015
v 0.04399860031767635 -0.029398924830620617 0.0015
v 0.04666833357176711 -0.024944743990375724 0.0015
v 0.04888862526205558 -0.020250331629319367 0.0015
v 0.05063809276582938 -0.015360897504715308 0.0015
v 0.051899887754670936 -0.010323529540020145 0.0015
v 0.05266185845307042 -0.005186740342439243 0.0015
f 1 66 2
f 1 65 66
f 129 194 193
f 129 130 194
f 1 130 129
f 1 2 130
f 65 194 66
f 65 193 194
f 2 67 3
f 2 66 67
f 130 195 194
f 130 131 195
f 2 131 130
f 2 3 131
f 66 195 67
f 66 194 195
f 3 68 4
f 3 67 68
f 131 196 195
f 131 132 196
f 3 132 131
f 3 4 132
f 67 196 68
f 67 195 196
f 4 69 5
f 4 68 69
f 132 197 196
f 132 133 197
f 4 133 132
f 4 5 133
f 68 197 69
f 68 196 197
f 5 70 6
f 5 69 70
f 133 198 197
f 133 134 198
f 5 134 133
f 5 6 134
f 69 198 70
f 69 197 198
f 6 71 7
f 6 70 71
f 134 199 198
f 134 135 199
f 6 135 134
f 6 7 135
f 70 199 71
f 70 198 199
f 7 72 8
f 7 71 72
f 135 200 199
f 135 136 200
f 7 136 135
f 7 8 136
f 71 200 72
f 71 199 200
f 8 73 9
f 8 72 73
f 136 201 200
f 136 137 201
f 8 137 136
f 8 9 137
f 72 201 73
f 72 200 201
f 9 74 10
f 9 73 74
f 137 202 201
f 137 138 202
f 9 138 137
f 9 10 138
f 73 202 74
f 73 201 202
f 10 75 11
f 10 74 75
f 138 203 202
f 138 139 203
f 10 139 138
f 10 11 139
f 74 203 75
f 74 202 203
f 11 76 12
f 11 75 76
f 139 204 203
f 139 140 204
f 11 140 139
f 11 12 140
f 75 204 76
f 75 203 204
f 12 77 13
f 12 76 77
f 140 205 204
f 140 141 205
f 12 141 140
f 12 13 141
f 76 205 77
f 76 204 205
f 13 78 14
f 13 77 78
f 141 206 205
f 141 142 206
f 13 142 141
f 13 14 142
f 77 206 78
f 77 205 206
f 14 79 15
f 14 78 79
f 142 207 206
f 142 143 207
f 14 143 142
f 14 15 143
f 78 207 79
f 78 206 207
f 15 80 16
f 15 79 80
f 143 208 207
f 143 144 208
f 15 144 143
f 15 16 144
f 79 208 80
f 79 207 208
f 16 81 17
f 16 80 81
f 144 209 208
f 144 145 209
f 16 145 144
f 16 17 145
f 80 209 81
f 80 208 209
f 17 82 18
f 17 81 82
f 145 210 209
f 145 146 210
f 17 146 145
f 17 18 146
f 81 210 82
f 81 209 210
f 18 83 19
f 18 82 83
f 146 211 210
f 146 147 211
f 18 147 146
f 18 19 147
f 82 211 83
f 82 210 211
f 19 84 20
f 19 83 84
f 147 212 211
f 147 148 212
f 19 148 147
f 19 20 148
f 83 212 84
f 83 211 212
f 20 85 21
f 20 84 85
f 148 213 212
f 148 149 213
f 20 149 148
f 20 21 149
f 84 213 85
f 84 212 213
f 21 86 22
f 21 85 86
f 149 214 213
f 149 150 214
f 21 150 149
f 21 22 150
f 85 214 86
f 85 213 214
f 22 87 23
f 22 86 87
f 150 215 214
f 150 151 215
f 22 151 150
f 22 23 151
f 86 215 87
f 86 214 215
f 23 88 24
f 23 87 88
f 151 216 215
f 151 152 216
f 23 152 151
f 23 24 152
f 87 216 88
f 87 215 216
f 24 89 25
f 24 88 89
f 152 217 216
f 152 153 217
f 24 153 152
f 24 25 153
f 88 217 89
f 88 216 217
f 25 90 26
f 25 89 90
f 153 218 217
f 153 154 218
f 25 154 153
f 25 26 154
f 89 218 90
f 89 217 218
f 26 91 27
f 26 90 91
f 154 219 218
f 154 155 219
f 26 155 154
f 26 27 155
f 90 219 91
f 90 218 219
f 27 92 28
f 27 91 92
f 155 220 219
f 155 156 220
f 27 156 155
f 27 28 156
f 91 220 92
f 91 219 220
f 28 93 29
f 28 92 93
f 156 221 220
f 156 157 221
f 28 157 156
f 28 29 157
f 92 221 93
f 92 220 221
f 29 94 30
f 29 93 94
f 157 222 221
f 157 158 222
f 29 158 157
f 29 30 158
f 93 222 94
f 93 221 222
f 30 95 31
f 30 94 95
f 158 223 222
f 158 159 223
f 30 159 158
f 30 31 159
f 94 223 95
f 94 222 223
f 31 96 32
f 31 95 96
f 159 224 223
f 159 160 224
f 31 160 159
f 31 32 160
f 95 224 96
f 95 223 224
f 32 97 33
f 32 96 97
f 160 225 224
f 160 161 225
f 32 161 160
f 32 33 161
f 96 225 97
f 96 224 225
f 33 98 34
f 33 97 98
f 161 226 225
f 161 162 226
f 33 162 161
f 33 34 162
f 97 226 98
f 97 225 226
f 34 99 35
f 34 98 99
f 162 227 226
f 162 163 227
f 34 163 162
f 34 35 163
f 98 227 99
f 98 226 227
f 35 100 36
f 35 99 100
f 163 228 227
f 163 164 228
f 35 164 163
f 35 36 164
f 99 228 100
f 99 227 228
f 36 101 37
f 36 100 101
f 164 229 228
f 164 165 229
f 36 165 164
f 36 37 165
f 100 229 101
f 100 228 229
f 37 102 38
f 37 101 102
f 165 230 229
f 165 166 230
f 37 166 165
f 37 38 166
f 101 230 102
f 101 229 230
f 38 103 39
f 38 102 103
f 166 231 230
f 166 167 231
f 38 167 166
f 38 39 167
f 102 231 103
f 102 230 231
f 39 104 40
f 39 103 104
f 167 232 231
f 167 168 232
f 39 168 167
f 39 40 168
f 103 232 104
f 103 231 232
f 40 105 41
f 40 104 105
f 168 233 232
f 168 169 233
f 40 169 168
f 40 41 169
f 104 233 105
f 104 232 233
f 41 106 42
f 41 105 106
f 169 234 233
f 169 170 234
f 41 170 169
f 41 42 170
f 105 234 106
f 105 233 234
f 42 107 43
f 42 106 107
f 170 235 234
f 170 171 235
f 42 171 170
f 42 43 171
f 106 235 107
f 106 234 235
f 43 108 44
f 43 107 108
f 171 236 235
f 171 172 236
f 43 172 171
f 43 44 172
f 107 236 108
f 107 235 236
f 44 109 45
f 44 108 109
f 172 237 236
f 172 173 237
f 44 173 172
f 44 45 173
f 108 237 109
f 108 236 237
f 45 110 46
f 45 109 110
f 173 238 237
f 173 174 238
f 45 174 173
f 45 46 174
f 109 238 110
f 109 237 238
f 46 111 47
f 46 110 111
f 174 239 238
f 174 175 239
f 46 175 174
f 46 47 175
f 110 239 111
f 110 238 239
f 47 112 48
f 47 111 112
f 175 240 239
f 175 176 240
f 47 176 175
f 47 48 176
f 111 240 112
f 111 239 240
f 48 113 49
f 48 112 113
f 176 241 240
f 176 177 241
f 48 177 176
f 48 49 177
f 112 241 113
f 112 240 241
f 49 114 50
f 49 113 114
f 177 242 241
f 177 178 242
f 49 178 177
f 49 50 178
f 113 242 114
f 113 241 242
f 50 115 51
f 50 114 115
f 178 243 242
f 178 179 243
f 50 179 178
f 50 51 179
f 114 243 115
f 114 242 243
f 51 116 52
f 51 115 116
f 179 244 243
f 179 180 244
f 51 180 179
f 51 52 180
f 115 244 116
f 115 243 244
f 52 117 53
f 52 116 117
f 180 245 244
f 180 181 245
f 52 181 180
f 52 53 181
f 116 245 117
f 116 244 245
f 53 118 54
f 53 117 118
f 181 246 245
f 181 182 246
f 53 182 181
f 53 54 182
f 117 246 118
f 117 245 246
f 54 119 55
f 54 118 119
f 182 247 246
f 182 183 247
f 54 183 182
f 54 55 183
f 118 247 119
f 118 246 247
f 55 120 56
f 55 119 120
f 183 248 247
f 183 184 248
f 55 184 183
f 55 56 184
f 119 248 120
f 119 247 248
f 56 121 57
f 56 120 121
f 184 249 248
f 184 185 249
f 56 185 184
f 56 57 185
f 120 249 121
f 120 248 249
f 57 122 58
f 57 121 122
f 185 250 249
f 185 186 250
f 57 186 185
f 57 58 186
f 121 250 122
f 121 249 250
f 58 123 59
f 58 122 123
f 186 251 250
f 186 187 251
f 58 187 186
f 58 59 187
f 122 251 123
f 122 250 251
f 59 124 60
f 59 123 124
f 187 252 251
f 187 188 252
f 59 188 187
f 59 60 188
f 123 252 124
f 123 251 252
f 60 125 61
f 60 124 125
f 188 253 252
f 188 189 253
f 60 189 188
f 60 61 189
f 124 253 125
f 124 252 253
f 61 126 62
f 61 125 126
f 189 254 253
f 189 190 254
f 61 190 189
f 61 62 190
f 125 254 126
f 125 253 254
f 62 127 63
f 62 126 127
f 190 255 254
f 190 191 255
f 62 191 190
f 62 63 191
f 126 255 127
f 126 254 255
f 63 128 64
f 63 127 128
f 191 256 255
f 191 192 256
f 63 192 191
f 63 64 192
f 127 256 128
f 127 255 256
f 64 65 1
f 64 128 65
f 192 193 256
f 192 129 193
f 64 129 192
f 64 1 129
f 128 193 65
f 128 256 193
